<svg width="1937" height="293" xmlns="http://www.w3.org/2000/svg" xmlns:xlink="http://www.w3.org/1999/xlink" xml:space="preserve" overflow="hidden"><defs><clipPath id="clip0"><rect x="1233" y="1306" width="1937" height="293"/></clipPath><clipPath id="clip1"><rect x="1235" y="1197" width="217" height="433"/></clipPath><clipPath id="clip2"><rect x="1235" y="1258" width="217" height="433"/></clipPath><clipPath id="clip3"><rect x="1235" y="1320" width="217" height="433"/></clipPath></defs><g clip-path="url(#clip0)" transform="translate(-1233 -1306)"><path d="M1451.09 1318.24 1451.09 1569.84" stroke="#000000" stroke-width="4.58333" stroke-linejoin="round" stroke-miterlimit="10" fill="none" fill-rule="evenodd"/><path d="M1845.38 1318.24 1845.38 1569.84" stroke="#000000" stroke-width="4.58333" stroke-linejoin="round" stroke-miterlimit="10" fill="none" fill-rule="evenodd"/><path d="M2169.41 1318.24 2169.41 1569.84" stroke="#000000" stroke-width="4.58333" stroke-linejoin="round" stroke-miterlimit="10" fill="none" fill-rule="evenodd"/><path d="M2307.53 1380.11 2307.53 1569.84" stroke="#000000" stroke-width="4.58333" stroke-linejoin="round" stroke-miterlimit="10" fill="none" fill-rule="evenodd"/><path d="M2815.56 1318.24 2815.56 1569.84" stroke="#000000" stroke-width="4.58333" stroke-linejoin="round" stroke-miterlimit="10" fill="none" fill-rule="evenodd"/><path d="M1233.26 1382.4 2171.7 1382.4" stroke="#000000" stroke-width="4.58333" stroke-linejoin="round" stroke-miterlimit="10" fill="none" fill-rule="evenodd"/><path d="M2305.24 1382.4 3166.74 1382.4" stroke="#000000" stroke-width="4.58333" stroke-linejoin="round" stroke-miterlimit="10" fill="none" fill-rule="evenodd"/><path d="M1233.26 1444.12 2171.7 1444.12" stroke="#000000" stroke-width="4.58333" stroke-linejoin="round" stroke-miterlimit="10" fill="none" fill-rule="evenodd"/><path d="M2305.24 1444.12 3166.74 1444.12" stroke="#000000" stroke-width="4.58333" stroke-linejoin="round" stroke-miterlimit="10" fill="none" fill-rule="evenodd"/><path d="M1233.26 1505.83 2171.7 1505.83" stroke="#000000" stroke-width="4.58333" stroke-linejoin="round" stroke-miterlimit="10" fill="none" fill-rule="evenodd"/><path d="M2305.24 1505.83 3166.74 1505.83" stroke="#000000" stroke-width="4.58333" stroke-linejoin="round" stroke-miterlimit="10" fill="none" fill-rule="evenodd"/><path d="M1235.55 1380.11 1235.55 1569.84" stroke="#000000" stroke-width="4.58333" stroke-linejoin="round" stroke-miterlimit="10" fill="none" fill-rule="evenodd"/><path d="M3164.45 1318.24 3164.45 1569.84" stroke="#000000" stroke-width="4.58333" stroke-linejoin="round" stroke-miterlimit="10" fill="none" fill-rule="evenodd"/><path d="M1448.8 1320.53 2171.7 1320.53" stroke="#000000" stroke-width="4.58333" stroke-linejoin="round" stroke-miterlimit="10" fill="none" fill-rule="evenodd"/><path d="M2813.27 1320.53 3166.74 1320.53" stroke="#000000" stroke-width="4.58333" stroke-linejoin="round" stroke-miterlimit="10" fill="none" fill-rule="evenodd"/><path d="M1233.26 1567.55 2171.7 1567.55" stroke="#000000" stroke-width="4.58333" stroke-linejoin="round" stroke-miterlimit="10" fill="none" fill-rule="evenodd"/><path d="M2305.24 1567.55 3166.74 1567.55" stroke="#000000" stroke-width="4.58333" stroke-linejoin="round" stroke-miterlimit="10" fill="none" fill-rule="evenodd"/><text font-family="Calibri,Calibri_MSFontService,sans-serif" font-weight="700" font-size="50" transform="matrix(1 0 0 1 1286.03 1370)">Night<tspan font-family="Roboto,Roboto_MSFontService,sans-serif" font-weight="400" font-size="50" x="235.305" y="0">Hotel A &amp; B</tspan><tspan font-family="Roboto,Roboto_MSFontService,sans-serif" font-weight="400" font-size="50" x="627.693" y="0">Hotel C*</tspan><tspan font-size="50" x="1222.24" y="0">Meal</tspan><tspan font-family="Roboto,Roboto_MSFontService,sans-serif" font-weight="400" font-size="50" x="1646.68" y="0">Price</tspan></text><g clip-path="url(#clip1)"><text font-family="Roboto,Roboto_MSFontService,sans-serif" font-weight="400" font-size="50" transform="matrix(1 0 0 1 1260.3 1431)">Single</text></g><text font-family="Roboto,Roboto_MSFontService,sans-serif" font-weight="400" font-size="50" transform="matrix(1 0 0 1 1519.9 1431)">4000 <tspan font-family="Calibri,Calibri_MSFontService,sans-serif" font-weight="700" font-size="50" x="124.896" y="0">DA</tspan><tspan font-family="Calibri,Calibri_MSFontService,sans-serif" font-weight="700" font-size="50" x="199.375" y="0">HT</tspan><tspan font-size="50" x="359.159" y="0">5400 </tspan><tspan font-family="Calibri,Calibri_MSFontService,sans-serif" font-weight="700" font-size="50" x="484.055" y="0">DA</tspan><tspan font-family="Calibri,Calibri_MSFontService,sans-serif" font-weight="700" font-size="50" x="558.534" y="0">HT</tspan><tspan font-size="50" x="839.977" y="0">Two</tspan><tspan font-size="50" x="936.8" y="0">-</tspan>course menu<tspan font-size="50" x="1341.77" y="0">1200 </tspan><tspan font-family="Calibri,Calibri_MSFontService,sans-serif" font-weight="700" font-size="50" x="1466.66" y="0">DA</tspan><tspan font-family="Calibri,Calibri_MSFontService,sans-serif" font-weight="700" font-size="50" x="1541.14" y="0">HT</tspan></text><g clip-path="url(#clip2)"><text font-family="Roboto,Roboto_MSFontService,sans-serif" font-weight="400" font-size="50" transform="matrix(1 0 0 1 1260.3 1493)">Double</text></g><text font-family="Roboto,Roboto_MSFontService,sans-serif" font-weight="400" font-size="50" transform="matrix(1 0 0 1 1519.9 1493)">5000 <tspan font-family="Calibri,Calibri_MSFontService,sans-serif" font-weight="700" font-size="50" x="124.896" y="0">DA</tspan><tspan font-family="Calibri,Calibri_MSFontService,sans-serif" font-weight="700" font-size="50" x="199.375" y="0">HT</tspan><tspan font-size="50" x="359.159" y="0">7400 </tspan><tspan font-family="Calibri,Calibri_MSFontService,sans-serif" font-weight="700" font-size="50" x="484.055" y="0">DA</tspan><tspan font-family="Calibri,Calibri_MSFontService,sans-serif" font-weight="700" font-size="50" x="558.534" y="0">HT</tspan><tspan font-size="50" x="823.935" y="0">Three</tspan>-course menu<tspan font-size="50" x="1341.77" y="0">1400 </tspan><tspan font-family="Calibri,Calibri_MSFontService,sans-serif" font-weight="700" font-size="50" x="1466.66" y="0">DA</tspan><tspan font-family="Calibri,Calibri_MSFontService,sans-serif" font-weight="700" font-size="50" x="1541.14" y="0">HT</tspan></text><g clip-path="url(#clip3)"><text font-family="Roboto,Roboto_MSFontService,sans-serif" font-weight="400" font-size="50" transform="matrix(1 0 0 1 1260.3 1555)">Triple</text></g><text font-family="Roboto,Roboto_MSFontService,sans-serif" font-weight="400" font-size="50" transform="matrix(1 0 0 1 1519.9 1555)">6000 <tspan font-family="Calibri,Calibri_MSFontService,sans-serif" font-weight="700" font-size="50" x="124.896" y="0">DA</tspan><tspan font-family="Calibri,Calibri_MSFontService,sans-serif" font-weight="700" font-size="50" x="199.375" y="0">HT</tspan><tspan font-size="50" x="359.159" y="0">9000 </tspan><tspan font-family="Calibri,Calibri_MSFontService,sans-serif" font-weight="700" font-size="50" x="484.055" y="0">DA</tspan><tspan font-family="Calibri,Calibri_MSFontService,sans-serif" font-weight="700" font-size="50" x="558.534" y="0">HT</tspan><tspan font-size="50" x="837.399" y="0">Four</tspan><tspan font-size="50" x="939.378" y="0">-</tspan>course menu<tspan font-size="50" x="1341.77" y="0">1600 </tspan><tspan font-family="Calibri,Calibri_MSFontService,sans-serif" font-weight="700" font-size="50" x="1466.66" y="0">DA</tspan><tspan font-family="Calibri,Calibri_MSFontService,sans-serif" font-weight="700" font-size="50" x="1541.14" y="0">HT</tspan></text></g></svg>