<svg width="592" height="292" xmlns="http://www.w3.org/2000/svg" xmlns:xlink="http://www.w3.org/1999/xlink" xml:space="preserve" overflow="hidden"><defs><clipPath id="clip0"><rect x="1905" y="1307" width="592" height="292"/></clipPath><clipPath id="clip1"><rect x="1907" y="1197" width="208" height="433"/></clipPath><clipPath id="clip2"><rect x="1907" y="1258" width="208" height="433"/></clipPath><clipPath id="clip3"><rect x="1907" y="1320" width="208" height="433"/></clipPath></defs><g clip-path="url(#clip0)" transform="translate(-1905 -1307)"><path d="M2114.29 1318.24 2114.29 1569.84" stroke="#000000" stroke-width="4.58333" stroke-linejoin="round" stroke-miterlimit="10" fill="none" fill-rule="evenodd"/><path d="M1905.29 1382.4 2494.71 1382.4" stroke="#000000" stroke-width="4.58333" stroke-linejoin="round" stroke-miterlimit="10" fill="none" fill-rule="evenodd"/><path d="M1905.29 1444.12 2494.71 1444.12" stroke="#000000" stroke-width="4.58333" stroke-linejoin="round" stroke-miterlimit="10" fill="none" fill-rule="evenodd"/><path d="M1905.29 1505.83 2494.71 1505.83" stroke="#000000" stroke-width="4.58333" stroke-linejoin="round" stroke-miterlimit="10" fill="none" fill-rule="evenodd"/><path d="M1907.58 1380.11 1907.58 1569.84" stroke="#000000" stroke-width="4.58333" stroke-linejoin="round" stroke-miterlimit="10" fill="none" fill-rule="evenodd"/><path d="M2492.42 1318.24 2492.42 1569.84" stroke="#000000" stroke-width="4.58333" stroke-linejoin="round" stroke-miterlimit="10" fill="none" fill-rule="evenodd"/><path d="M2112 1320.53 2494.71 1320.53" stroke="#000000" stroke-width="4.58333" stroke-linejoin="round" stroke-miterlimit="10" fill="none" fill-rule="evenodd"/><path d="M1905.29 1567.55 2494.71 1567.55" stroke="#000000" stroke-width="4.58333" stroke-linejoin="round" stroke-miterlimit="10" fill="none" fill-rule="evenodd"/><text font-family="Calibri,Calibri_MSFontService,sans-serif" font-weight="700" font-size="50" transform="matrix(1 0 0 1 2246.06 1370)">Night</text><g clip-path="url(#clip1)"><text font-family="Roboto,Roboto_MSFontService,sans-serif" font-weight="400" font-size="50" transform="matrix(1 0 0 1 1932.33 1431)">Single</text></g><text font-family="Roboto,Roboto_MSFontService,sans-serif" font-weight="400" font-size="50" transform="matrix(1 0 0 1 2175.02 1431)">5500 <tspan font-family="Calibri,Calibri_MSFontService,sans-serif" font-weight="700" font-size="50" x="124.896" y="0">DA</tspan><tspan font-family="Calibri,Calibri_MSFontService,sans-serif" font-weight="700" font-size="50" x="199.375" y="0">HT</tspan></text><g clip-path="url(#clip2)"><text font-family="Roboto,Roboto_MSFontService,sans-serif" font-weight="400" font-size="50" transform="matrix(1 0 0 1 1932.33 1493)">Double</text></g><text font-family="Roboto,Roboto_MSFontService,sans-serif" font-weight="400" font-size="50" transform="matrix(1 0 0 1 2175.02 1493)">8600 <tspan font-family="Calibri,Calibri_MSFontService,sans-serif" font-weight="700" font-size="50" x="124.896" y="0">DA</tspan><tspan font-family="Calibri,Calibri_MSFontService,sans-serif" font-weight="700" font-size="50" x="199.375" y="0">HT</tspan></text><g clip-path="url(#clip3)"><text font-family="Roboto,Roboto_MSFontService,sans-serif" font-weight="400" font-size="50" transform="matrix(1 0 0 1 1932.33 1555)">Triple</text></g><text font-family="Roboto,Roboto_MSFontService,sans-serif" font-weight="400" font-size="50" transform="matrix(1 0 0 1 2160.98 1555)">10900 <tspan font-family="Calibri,Calibri_MSFontService,sans-serif" font-weight="700" font-size="50" x="152.969" y="0">DA</tspan><tspan font-family="Calibri,Calibri_MSFontService,sans-serif" font-weight="700" font-size="50" x="227.448" y="0">HT</tspan></text></g></svg>